<svg xmlns="http://www.w3.org/2000/svg" xmlns:xlink="http://www.w3.org/1999/xlink" width="1920" zoomAndPan="magnify" viewBox="0 0 1440 809.999993" height="1080" preserveAspectRatio="xMidYMid meet" version="1.0"><defs><clipPath id="2a0aa8bc72"><path d="M 275.148438 302.492188 L 1164.648438 302.492188 L 1164.648438 507.472656 L 275.148438 507.472656 Z M 275.148438 302.492188 " clip-rule="nonzero"/></clipPath></defs><g clip-path="url(#2a0aa8bc72)"><path fill="#ffffff" d="M 1140.585938 414.832031 C 1138.4375 422.160156 1134.070312 428.9375 1128.222656 434.835938 C 1122.386719 440.757812 1115.175781 445.792969 1107.339844 450.03125 C 1091.59375 458.507812 1073.570312 463.945312 1055.175781 467.589844 C 1036.726562 471.21875 1017.714844 473.042969 998.613281 473.707031 C 989.050781 474.027344 979.464844 474.054688 969.859375 473.820312 C 960.570312 473.601562 951.332031 472.84375 942.066406 471.621094 C 904.984375 466.683594 868.417969 454.90625 833.289062 439.894531 C 824.503906 436.109375 815.769531 432.164062 807.179688 427.917969 L 781.617188 414.699219 C 777.316406 412.597656 773.226562 410.078125 769.074219 407.703125 L 756.644531 400.527344 C 752.4375 398.207031 748.558594 395.527344 744.5 393.039062 L 742.171875 391.574219 L 768.550781 378.089844 L 795.550781 365.804688 C 813.589844 357.753906 832.125 350.871094 850.863281 344.828125 C 888.332031 332.917969 927.289062 324.816406 966.082031 325.226562 C 985.597656 325.582031 1005.199219 326.980469 1024.417969 329.777344 C 1043.625 332.597656 1062.589844 336.820312 1080.464844 343.328125 C 1089.386719 346.582031 1098.015625 350.425781 1106.023438 355.023438 C 1114.023438 359.621094 1121.417969 364.996094 1127.472656 371.234375 C 1133.519531 377.453125 1138.132812 384.554688 1140.410156 392.046875 C 1142.714844 399.480469 1142.75 407.523438 1140.585938 414.832031 Z M 671.484375 431.878906 L 644.480469 444.160156 C 626.449219 452.21875 607.902344 459.101562 589.164062 465.148438 C 551.695312 477.054688 512.746094 485.160156 473.945312 484.75 C 454.429688 484.382812 434.832031 482.996094 415.621094 480.195312 C 396.402344 477.371094 377.4375 473.148438 359.566406 466.648438 C 350.648438 463.394531 342.023438 459.546875 334.003906 454.949219 C 326.007812 450.351562 318.609375 444.972656 312.5625 438.742188 C 306.507812 432.523438 301.902344 425.421875 299.617188 417.929688 C 297.316406 410.496094 297.289062 402.453125 299.453125 395.144531 C 301.589844 387.816406 305.960938 381.039062 311.804688 375.132812 C 317.640625 369.21875 324.863281 364.183594 332.6875 359.945312 C 348.433594 351.457031 366.457031 346.03125 384.855469 342.382812 C 403.3125 338.753906 422.320312 336.921875 441.425781 336.269531 C 450.976562 335.945312 460.574219 335.921875 470.175781 336.15625 C 479.457031 336.375 488.695312 337.132812 497.96875 338.355469 C 535.042969 343.292969 571.621094 355.058594 606.75 370.074219 C 615.535156 373.859375 624.257812 377.808594 632.851562 382.058594 L 658.410156 395.265625 C 662.71875 397.367188 666.800781 399.890625 670.953125 402.261719 L 683.386719 409.449219 C 687.589844 411.769531 691.480469 414.449219 695.527344 416.933594 L 697.855469 418.398438 Z M 1161.128906 384.972656 C 1157.019531 373.65625 1149.839844 364.15625 1141.738281 356.601562 C 1133.582031 349.015625 1124.4375 343.144531 1115.042969 338.328125 C 1105.621094 333.53125 1095.886719 329.777344 1086.046875 326.726562 C 1066.339844 320.644531 1046.242188 317.242188 1026.160156 315.289062 C 1006.054688 313.371094 986.015625 312.933594 965.941406 313.554688 C 925.386719 315.140625 886.210938 325.445312 848.953125 339.3125 C 830.328125 346.34375 812.035156 354.1875 794.328125 363.164062 L 767.878906 376.796875 L 742.171875 391.574219 L 738.492188 389.253906 L 732.898438 385.511719 L 725.9375 381.324219 L 719.1875 377.511719 C 714.675781 375.035156 710.234375 372.324219 705.65625 370.0625 L 692.003906 363.042969 C 687.449219 360.730469 682.957031 358.277344 678.265625 356.246094 L 650.375 343.535156 C 641.007812 339.460938 631.480469 335.703125 621.894531 332.125 C 583.519531 317.933594 543.402344 307.019531 501.625 303.511719 C 491.199219 302.667969 480.636719 302.316406 470.125 302.589844 C 459.9375 302.839844 449.722656 303.375 439.515625 304.21875 C 419.101562 305.929688 398.671875 308.886719 378.46875 313.902344 C 358.308594 318.972656 338.226562 325.941406 319.550781 337.195312 C 310.261719 342.847656 301.320312 349.640625 293.640625 358.234375 C 285.992188 366.757812 279.660156 377.363281 276.851562 389.273438 C 273.996094 401.128906 274.765625 413.714844 278.898438 425.003906 C 283.007812 436.316406 290.1875 445.816406 298.300781 453.371094 C 306.457031 460.960938 315.589844 466.824219 324.984375 471.636719 C 334.40625 476.445312 344.140625 480.1875 353.980469 483.25 C 373.6875 489.328125 393.796875 492.722656 413.867188 494.683594 C 433.976562 496.605469 454.011719 497.039062 474.09375 496.421875 C 514.648438 494.832031 553.816406 484.53125 591.074219 470.660156 C 609.707031 463.628906 628 455.789062 645.707031 446.8125 L 672.148438 433.175781 L 697.855469 418.398438 L 701.546875 420.71875 L 707.128906 424.460938 L 714.101562 428.648438 L 720.84375 432.453125 C 725.351562 434.9375 729.792969 437.652344 734.371094 439.902344 L 748.023438 446.925781 C 752.578125 449.246094 757.070312 451.695312 761.765625 453.730469 L 789.652344 466.4375 C 799.023438 470.511719 808.546875 474.265625 818.132812 477.847656 C 856.515625 492.042969 896.636719 502.957031 938.414062 506.453125 C 948.828125 507.308594 959.390625 507.65625 969.902344 507.386719 C 980.101562 507.132812 990.308594 506.601562 1000.515625 505.753906 C 1020.925781 504.035156 1041.355469 501.089844 1061.558594 496.074219 C 1081.71875 491.003906 1101.800781 484.035156 1120.476562 472.78125 C 1129.769531 467.121094 1138.710938 460.332031 1146.386719 451.742188 C 1154.035156 443.207031 1160.371094 432.601562 1163.179688 420.703125 C 1166.03125 408.847656 1165.261719 396.261719 1161.128906 384.972656 " fill-opacity="1" fill-rule="nonzero"/></g></svg>